# xmcd
# 
# Track frame offsets:
#     150
#     16040
#     32368
#     56993
#     76750
#     101014
#     121328
#     133020
#     159242
#     185042
#     204464
#     218487
#     238177
#     247230
#     273198
#     287175
#     301716
#     314732
# 
# Disc length: 4322
# 
# Revision: 1
# Processed by: cddbd v1.5.2PL0 Copyright (c) Steve Scherf et al.
# Submitted via: fre:ac v1.0.31
# 
DISCID=fa10e012
DTITLE=Rod Stewart/Faces - Stay With Me - Anthology - Disc 2
DYEAR=2012
DGENRE=Rock/Pop
TTITLE0=Ooh La La
TTITLE1=Maybe I'm Amazed
TTITLE2=Memphis, Tennessee
TTITLE3=Pool Hall Richard
TTITLE4=Bad'n'Ruin
TTITLE5=You can make me dance, sing or anything
TTITLE6=Last orders please
TTITLE7=Around th Plynth
TTITLE8=Three button hand me down
TTITLE9=As long as you tell him
TTITLE10=Glad and Sorry
TTITLE11=Pineapple and the monkey
TTITLE12=Flags and banners
TTITLE13=Sweet lady Mary
TTITLE14=Silicone grown
TTITLE15=Shake, Shudder, Shiver
TTITLE16=Borstal Boys
TTITLE17=Gasoline alley (Live)
EXTD=
EXTT0=
EXTT1=
EXTT2=
EXTT3=
EXTT4=
EXTT5=
EXTT6=
EXTT7=
EXTT8=
EXTT9=
EXTT10=
EXTT11=
EXTT12=
EXTT13=
EXTT14=
EXTT15=
EXTT16=
EXTT17=
PLAYORDER=
